<mxfile host="app.diagrams.net" modified="2022-09-27T09:30:47.607Z" agent="5.0 (Macintosh; Intel Mac OS X 10_15_7) AppleWebKit/537.36 (KHTML, like Gecko) Chrome/103.0.0.0 Safari/537.36" etag="0mRYdHzZ9884jycOgKe3" version="20.1.4" type="github">
  <diagram id="Xz7tkNX8YIn2486mzFub" name="第 1 页">
    <mxGraphModel dx="996" dy="586" grid="1" gridSize="10" guides="1" tooltips="1" connect="1" arrows="1" fold="1" page="1" pageScale="1" pageWidth="827" pageHeight="1169" math="0" shadow="0">
      <root>
        <mxCell id="0" />
        <mxCell id="1" parent="0" />
        <mxCell id="vMsozS1or2EIoxYyjjFL-47" value="&lt;span style=&quot;color: rgb(51, 51, 51); font-size: 12px; text-align: left; background-color: rgb(255, 255, 255);&quot;&gt;&lt;i&gt;ω&lt;/i&gt;&lt;/span&gt;" style="text;html=1;strokeColor=none;fillColor=none;align=center;verticalAlign=middle;whiteSpace=wrap;rounded=0;fontFamily=Times New Roman;fontSize=11;" vertex="1" parent="1">
          <mxGeometry x="360" y="476" width="20" height="14" as="geometry" />
        </mxCell>
        <mxCell id="vMsozS1or2EIoxYyjjFL-45" value="B" style="text;strokeColor=none;fillColor=none;align=left;verticalAlign=middle;spacingLeft=4;spacingRight=4;overflow=hidden;points=[[0,0.5],[1,0.5]];portConstraint=eastwest;rotatable=0;fontFamily=Times New Roman;fontStyle=3;fontSize=14;" vertex="1" parent="1">
          <mxGeometry x="300" y="290" width="30" height="30" as="geometry" />
        </mxCell>
        <mxCell id="vMsozS1or2EIoxYyjjFL-37" value="&lt;span style=&quot;color: rgb(51, 51, 51); text-align: left; background-color: rgb(255, 255, 255);&quot;&gt;&lt;i style=&quot;&quot;&gt;&lt;font style=&quot;font-size: 11px;&quot;&gt;θ&lt;/font&gt;&lt;/i&gt;&lt;/span&gt;" style="text;html=1;align=center;verticalAlign=middle;resizable=0;points=[];autosize=1;strokeColor=none;fillColor=none;fontSize=6;fontFamily=Times New Roman;" vertex="1" parent="1">
          <mxGeometry x="247" y="434" width="30" height="30" as="geometry" />
        </mxCell>
        <mxCell id="vMsozS1or2EIoxYyjjFL-42" value="&lt;i&gt;ϑ&lt;/i&gt;" style="text;html=1;strokeColor=none;fillColor=none;align=center;verticalAlign=middle;whiteSpace=wrap;rounded=0;fontFamily=Times New Roman;fontSize=11;" vertex="1" parent="1">
          <mxGeometry x="230" y="290" width="60" height="21" as="geometry" />
        </mxCell>
        <mxCell id="vMsozS1or2EIoxYyjjFL-39" value="&lt;span style=&quot;color: rgb(51, 51, 51); font-size: 12px; text-align: left; background-color: rgb(255, 255, 255);&quot;&gt;&lt;i&gt;φ&lt;/i&gt;&lt;/span&gt;" style="text;html=1;resizable=0;autosize=1;align=center;verticalAlign=middle;points=[];fillColor=none;strokeColor=none;rounded=0;fontFamily=Times New Roman;fontSize=11;" vertex="1" parent="1">
          <mxGeometry x="285" y="455" width="30" height="30" as="geometry" />
        </mxCell>
        <mxCell id="vMsozS1or2EIoxYyjjFL-1" value="" style="endArrow=classic;html=1;rounded=0;" edge="1" parent="1">
          <mxGeometry width="50" height="50" relative="1" as="geometry">
            <mxPoint x="240" y="440" as="sourcePoint" />
            <mxPoint x="540" y="440" as="targetPoint" />
          </mxGeometry>
        </mxCell>
        <mxCell id="vMsozS1or2EIoxYyjjFL-2" value="" style="endArrow=classic;html=1;rounded=0;" edge="1" parent="1">
          <mxGeometry width="50" height="50" relative="1" as="geometry">
            <mxPoint x="240" y="440" as="sourcePoint" />
            <mxPoint x="110" y="570" as="targetPoint" />
          </mxGeometry>
        </mxCell>
        <mxCell id="vMsozS1or2EIoxYyjjFL-3" value="" style="endArrow=classic;html=1;rounded=0;" edge="1" parent="1">
          <mxGeometry width="50" height="50" relative="1" as="geometry">
            <mxPoint x="240" y="440" as="sourcePoint" />
            <mxPoint x="240" y="190" as="targetPoint" />
          </mxGeometry>
        </mxCell>
        <mxCell id="vMsozS1or2EIoxYyjjFL-4" value="" style="endArrow=none;dashed=1;html=1;strokeWidth=2;rounded=0;" edge="1" parent="1">
          <mxGeometry width="50" height="50" relative="1" as="geometry">
            <mxPoint x="190" y="240" as="sourcePoint" />
            <mxPoint x="500" y="458" as="targetPoint" />
          </mxGeometry>
        </mxCell>
        <mxCell id="vMsozS1or2EIoxYyjjFL-5" value="" style="endArrow=none;dashed=1;html=1;strokeWidth=2;rounded=0;startArrow=none;" edge="1" parent="1" source="vMsozS1or2EIoxYyjjFL-19">
          <mxGeometry width="50" height="50" relative="1" as="geometry">
            <mxPoint x="180" y="400" as="sourcePoint" />
            <mxPoint x="440" y="582" as="targetPoint" />
          </mxGeometry>
        </mxCell>
        <mxCell id="vMsozS1or2EIoxYyjjFL-6" value="O" style="text;strokeColor=none;fillColor=none;align=left;verticalAlign=middle;spacingLeft=4;spacingRight=4;overflow=hidden;points=[[0,0.5],[1,0.5]];portConstraint=eastwest;rotatable=0;fontFamily=Times New Roman;fontStyle=3" vertex="1" parent="1">
          <mxGeometry x="210" y="420" width="20" height="30" as="geometry" />
        </mxCell>
        <mxCell id="vMsozS1or2EIoxYyjjFL-9" value="X" style="text;strokeColor=none;fillColor=none;align=left;verticalAlign=middle;spacingLeft=4;spacingRight=4;overflow=hidden;points=[[0,0.5],[1,0.5]];portConstraint=eastwest;rotatable=0;fontStyle=3;fontFamily=Times New Roman;" vertex="1" parent="1">
          <mxGeometry x="125" y="560" width="80" height="30" as="geometry" />
        </mxCell>
        <mxCell id="vMsozS1or2EIoxYyjjFL-10" value="Y" style="text;strokeColor=none;fillColor=none;align=left;verticalAlign=middle;spacingLeft=4;spacingRight=4;overflow=hidden;points=[[0,0.5],[1,0.5]];portConstraint=eastwest;rotatable=0;fontFamily=Times New Roman;fontStyle=3" vertex="1" parent="1">
          <mxGeometry x="540" y="410" width="30" height="30" as="geometry" />
        </mxCell>
        <mxCell id="vMsozS1or2EIoxYyjjFL-11" value="&lt;i&gt;&lt;b&gt;Z&lt;/b&gt;&lt;/i&gt;" style="text;html=1;strokeColor=none;fillColor=none;align=center;verticalAlign=middle;whiteSpace=wrap;rounded=0;fontFamily=Times New Roman;" vertex="1" parent="1">
          <mxGeometry x="240" y="140" width="30" height="30" as="geometry" />
        </mxCell>
        <mxCell id="vMsozS1or2EIoxYyjjFL-13" value="" style="endArrow=classic;html=1;rounded=0;fontFamily=Times New Roman;" edge="1" parent="1">
          <mxGeometry width="50" height="50" relative="1" as="geometry">
            <mxPoint x="330" y="300" as="sourcePoint" />
            <mxPoint x="370" y="330" as="targetPoint" />
          </mxGeometry>
        </mxCell>
        <mxCell id="vMsozS1or2EIoxYyjjFL-14" value="&lt;i&gt;v&lt;/i&gt;" style="text;html=1;strokeColor=none;fillColor=none;align=center;verticalAlign=middle;whiteSpace=wrap;rounded=0;fontFamily=Times New Roman;" vertex="1" parent="1">
          <mxGeometry x="330" y="290" width="60" height="30" as="geometry" />
        </mxCell>
        <mxCell id="vMsozS1or2EIoxYyjjFL-15" value="H" style="text;strokeColor=none;fillColor=none;align=left;verticalAlign=middle;spacingLeft=4;spacingRight=4;overflow=hidden;points=[[0,0.5],[1,0.5]];portConstraint=eastwest;rotatable=0;fontFamily=Times New Roman;fontStyle=3;fontSize=14;" vertex="1" parent="1">
          <mxGeometry x="205" y="330" width="30" height="30" as="geometry" />
        </mxCell>
        <mxCell id="vMsozS1or2EIoxYyjjFL-16" value="" style="endArrow=none;html=1;rounded=0;fontFamily=Times New Roman;fontSize=14;strokeWidth=2;" edge="1" parent="1">
          <mxGeometry width="50" height="50" relative="1" as="geometry">
            <mxPoint x="240" y="275" as="sourcePoint" />
            <mxPoint x="300" y="317" as="targetPoint" />
          </mxGeometry>
        </mxCell>
        <mxCell id="vMsozS1or2EIoxYyjjFL-17" value="" style="endArrow=none;html=1;rounded=0;fontFamily=Times New Roman;fontSize=14;strokeWidth=2;" edge="1" parent="1">
          <mxGeometry width="50" height="50" relative="1" as="geometry">
            <mxPoint x="300" y="317" as="sourcePoint" />
            <mxPoint x="320" y="498" as="targetPoint" />
          </mxGeometry>
        </mxCell>
        <mxCell id="vMsozS1or2EIoxYyjjFL-18" value="" style="endArrow=none;html=1;rounded=0;fontFamily=Times New Roman;fontSize=14;strokeWidth=2;" edge="1" parent="1">
          <mxGeometry width="50" height="50" relative="1" as="geometry">
            <mxPoint x="240" y="275" as="sourcePoint" />
            <mxPoint x="320" y="500" as="targetPoint" />
          </mxGeometry>
        </mxCell>
        <mxCell id="vMsozS1or2EIoxYyjjFL-19" value="" style="shape=waypoint;sketch=0;fillStyle=solid;size=6;pointerEvents=1;points=[];fillColor=none;resizable=0;rotatable=0;perimeter=centerPerimeter;snapToPoint=1;fontFamily=Times New Roman;fontSize=14;" vertex="1" parent="1">
          <mxGeometry x="300" y="480" width="40" height="40" as="geometry" />
        </mxCell>
        <mxCell id="vMsozS1or2EIoxYyjjFL-20" value="" style="endArrow=none;dashed=1;html=1;strokeWidth=2;rounded=0;" edge="1" parent="1" target="vMsozS1or2EIoxYyjjFL-19">
          <mxGeometry width="50" height="50" relative="1" as="geometry">
            <mxPoint x="180" y="400" as="sourcePoint" />
            <mxPoint x="539.9999999999999" y="650" as="targetPoint" />
          </mxGeometry>
        </mxCell>
        <mxCell id="vMsozS1or2EIoxYyjjFL-28" value="&lt;i&gt;&lt;b&gt;R&lt;sub&gt;0&lt;/sub&gt;&lt;/b&gt;&lt;/i&gt;" style="text;html=1;resizable=0;autosize=1;align=center;verticalAlign=middle;points=[];fillColor=none;strokeColor=none;rounded=0;fontFamily=Times New Roman;fontSize=11;" vertex="1" parent="1">
          <mxGeometry x="250" y="400" width="40" height="30" as="geometry" />
        </mxCell>
        <mxCell id="vMsozS1or2EIoxYyjjFL-30" value="&lt;i&gt;&lt;b&gt;R&lt;font size=&quot;1&quot;&gt;(t)&lt;/font&gt;&lt;/b&gt;&lt;/i&gt;" style="text;html=1;resizable=0;autosize=1;align=center;verticalAlign=middle;points=[];fillColor=none;strokeColor=none;rounded=0;fontFamily=Times New Roman;fontSize=11;" vertex="1" parent="1">
          <mxGeometry x="310" y="370" width="40" height="30" as="geometry" />
        </mxCell>
        <mxCell id="vMsozS1or2EIoxYyjjFL-31" value="P" style="text;strokeColor=none;fillColor=none;align=left;verticalAlign=middle;spacingLeft=4;spacingRight=4;overflow=hidden;points=[[0,0.5],[1,0.5]];portConstraint=eastwest;rotatable=0;fontFamily=Times New Roman;fontStyle=3;fontSize=14;" vertex="1" parent="1">
          <mxGeometry x="290" y="490" width="30" height="30" as="geometry" />
        </mxCell>
        <mxCell id="vMsozS1or2EIoxYyjjFL-33" value="" style="endArrow=none;html=1;rounded=0;fontFamily=Times New Roman;fontSize=11;strokeWidth=1;edgeStyle=orthogonalEdgeStyle;curved=1;endSize=4;startSize=10;sourcePerimeterSpacing=0;" edge="1" parent="1">
          <mxGeometry width="50" height="50" relative="1" as="geometry">
            <mxPoint x="260" y="440" as="sourcePoint" />
            <mxPoint x="250" y="450" as="targetPoint" />
            <Array as="points">
              <mxPoint x="260" y="450" />
            </Array>
          </mxGeometry>
        </mxCell>
        <mxCell id="vMsozS1or2EIoxYyjjFL-38" value="" style="endArrow=none;html=1;rounded=0;shadow=0;fontFamily=Times New Roman;fontSize=11;startSize=0;endSize=4;sourcePerimeterSpacing=0;strokeWidth=1;edgeStyle=orthogonalEdgeStyle;curved=1;" edge="1" parent="1">
          <mxGeometry width="50" height="50" relative="1" as="geometry">
            <mxPoint x="310" y="476" as="sourcePoint" />
            <mxPoint x="300" y="486" as="targetPoint" />
            <Array as="points">
              <mxPoint x="300" y="476" />
            </Array>
          </mxGeometry>
        </mxCell>
        <mxCell id="vMsozS1or2EIoxYyjjFL-41" value="" style="endArrow=none;html=1;rounded=0;shadow=0;fontFamily=Times New Roman;fontSize=11;startSize=0;endSize=4;sourcePerimeterSpacing=0;strokeWidth=1;curved=1;edgeStyle=orthogonalEdgeStyle;" edge="1" parent="1">
          <mxGeometry width="50" height="50" relative="1" as="geometry">
            <mxPoint x="250" y="300" as="sourcePoint" />
            <mxPoint x="260" y="290" as="targetPoint" />
            <Array as="points">
              <mxPoint x="260" y="300" />
            </Array>
          </mxGeometry>
        </mxCell>
        <mxCell id="vMsozS1or2EIoxYyjjFL-44" value="A" style="text;strokeColor=none;fillColor=none;align=left;verticalAlign=middle;spacingLeft=4;spacingRight=4;overflow=hidden;points=[[0,0.5],[1,0.5]];portConstraint=eastwest;rotatable=0;fontFamily=Times New Roman;fontStyle=3;fontSize=14;" vertex="1" parent="1">
          <mxGeometry x="240" y="250" width="30" height="30" as="geometry" />
        </mxCell>
        <mxCell id="vMsozS1or2EIoxYyjjFL-46" value="" style="endArrow=classic;html=1;rounded=0;shadow=0;fontFamily=Times New Roman;fontSize=11;startSize=0;endSize=4;sourcePerimeterSpacing=0;strokeWidth=1;curved=1;" edge="1" parent="1">
          <mxGeometry width="50" height="50" relative="1" as="geometry">
            <mxPoint x="340" y="490" as="sourcePoint" />
            <mxPoint x="370" y="460" as="targetPoint" />
            <Array as="points">
              <mxPoint x="360" y="480" />
            </Array>
          </mxGeometry>
        </mxCell>
      </root>
    </mxGraphModel>
  </diagram>
</mxfile>
